<?xml version="1.0" encoding="UTF-8" standalone="no"?>
<!DOCTYPE svg PUBLIC "-//W3C//DTD SVG 1.1//EN"
 "http://www.w3.org/Graphics/SVG/1.1/DTD/svg11.dtd">
<!-- Generated by graphviz version 2.47.2 (0)
 -->
<!-- Pages: 1 -->
<svg width="1557pt" height="802pt"
 viewBox="0.00 0.00 1557.04 802.00" xmlns="http://www.w3.org/2000/svg" xmlns:xlink="http://www.w3.org/1999/xlink">
<g id="graph0" class="graph" transform="scale(1 1) rotate(0) translate(4 798)">
<polygon fill="white" stroke="transparent" points="-4,4 -4,-798 1553.04,-798 1553.04,4 -4,4"/>
<!-- 0 -->
<g id="node1" class="node">
<title>0</title>
<ellipse fill="none" stroke="lightslategrey" cx="45.5" cy="-469" rx="27" ry="18"/>
<text text-anchor="middle" x="45.5" y="-465.3" font-family="Times,serif" font-size="14.00">x</text>
</g>
<!-- 10 -->
<g id="node11" class="node">
<title>10</title>
<ellipse fill="greenyellow" stroke="greenyellow" cx="242.54" cy="-442" rx="27" ry="18"/>
<text text-anchor="middle" x="242.54" y="-438.3" font-family="Times,serif" font-size="14.00">tanh</text>
</g>
<!-- 0&#45;&gt;10 -->
<g id="edge1" class="edge">
<title>0&#45;&gt;10</title>
<path fill="none" stroke="black" d="M71.99,-465.47C106.16,-460.74 166.98,-452.32 205.73,-446.96"/>
<polygon fill="black" stroke="black" points="206.61,-450.37 216.03,-445.53 205.65,-443.44 206.61,-450.37"/>
</g>
<!-- 1 -->
<g id="node2" class="node">
<title>1</title>
<ellipse fill="none" stroke="lightslategrey" cx="242.54" cy="-735" rx="30.59" ry="18"/>
<text text-anchor="middle" x="242.54" y="-731.3" font-family="Times,serif" font-size="14.00">x_dot</text>
</g>
<!-- 6 -->
<g id="node7" class="node">
<title>6</title>
<ellipse fill="turquoise" stroke="turquoise" cx="433.73" cy="-776" rx="36.29" ry="18"/>
<text text-anchor="middle" x="433.73" y="-772.3" font-family="Times,serif" font-size="14.00">Inverse</text>
</g>
<!-- 1&#45;&gt;6 -->
<g id="edge2" class="edge">
<title>1&#45;&gt;6</title>
<path fill="none" stroke="black" d="M271.45,-741.05C302.74,-747.83 353.83,-758.9 390.11,-766.76"/>
<polygon fill="black" stroke="black" points="389.41,-770.19 399.93,-768.89 390.9,-763.35 389.41,-770.19"/>
</g>
<!-- 7 -->
<g id="node8" class="node">
<title>7</title>
<ellipse fill="turquoise" stroke="turquoise" cx="1347.45" cy="-730" rx="36.29" ry="18"/>
<text text-anchor="middle" x="1347.45" y="-726.3" font-family="Times,serif" font-size="14.00">Inverse</text>
</g>
<!-- 1&#45;&gt;7 -->
<g id="edge3" class="edge">
<title>1&#45;&gt;7</title>
<path fill="none" stroke="black" d="M273.53,-734.33C336.91,-732.96 489.11,-730 616.77,-730 616.77,-730 616.77,-730 983.61,-730 1097.75,-730 1232.09,-730 1300.85,-730"/>
<polygon fill="black" stroke="black" points="1300.91,-733.5 1310.91,-730 1300.91,-726.5 1300.91,-733.5"/>
</g>
<!-- 12 -->
<g id="node13" class="node">
<title>12</title>
<ellipse fill="gold" stroke="gold" cx="433.73" cy="-469" rx="39.79" ry="18"/>
<text text-anchor="middle" x="433.73" y="-465.3" font-family="Times,serif" font-size="14.00">Gausian</text>
</g>
<!-- 1&#45;&gt;12 -->
<g id="edge4" class="edge">
<title>1&#45;&gt;12</title>
<path fill="none" stroke="black" d="M266.16,-723.29C273.04,-719.06 280.31,-713.86 286.08,-708 350.67,-642.43 399.84,-543.36 421.14,-496.03"/>
<polygon fill="black" stroke="black" points="424.4,-497.31 425.26,-486.75 418,-494.47 424.4,-497.31"/>
</g>
<!-- 2 -->
<g id="node3" class="node">
<title>2</title>
<ellipse fill="none" stroke="lightslategrey" cx="45.5" cy="-731" rx="45.49" ry="18"/>
<text text-anchor="middle" x="45.5" y="-727.3" font-family="Times,serif" font-size="14.00">cos(theta)</text>
</g>
<!-- 2&#45;&gt;6 -->
<g id="edge5" class="edge">
<title>2&#45;&gt;6</title>
<path fill="none" stroke="black" d="M84.79,-740.34C115.48,-747.45 159.75,-756.86 198.99,-762 264.01,-770.51 339.89,-773.86 387.13,-775.16"/>
<polygon fill="black" stroke="black" points="387.25,-778.67 397.34,-775.43 387.43,-771.67 387.25,-778.67"/>
</g>
<!-- 11 -->
<g id="node12" class="node">
<title>11</title>
<ellipse fill="greenyellow" stroke="greenyellow" cx="242.54" cy="-681" rx="27" ry="18"/>
<text text-anchor="middle" x="242.54" y="-677.3" font-family="Times,serif" font-size="14.00">tanh</text>
</g>
<!-- 2&#45;&gt;11 -->
<g id="edge6" class="edge">
<title>2&#45;&gt;11</title>
<path fill="none" stroke="black" d="M84.1,-721.36C119.62,-712.26 172.44,-698.71 206.93,-689.87"/>
<polygon fill="black" stroke="black" points="208.19,-693.16 217.01,-687.29 206.45,-686.38 208.19,-693.16"/>
</g>
<!-- 3 -->
<g id="node4" class="node">
<title>3</title>
<ellipse fill="none" stroke="lightslategrey" cx="45.5" cy="-415" rx="44.39" ry="18"/>
<text text-anchor="middle" x="45.5" y="-411.3" font-family="Times,serif" font-size="14.00">sin(theta)</text>
</g>
<!-- 8 -->
<g id="node9" class="node">
<title>8</title>
<ellipse fill="greenyellow" stroke="greenyellow" cx="982.61" cy="-638" rx="27" ry="18"/>
<text text-anchor="middle" x="982.61" y="-634.3" font-family="Times,serif" font-size="14.00">tanh</text>
</g>
<!-- 3&#45;&gt;8 -->
<g id="edge7" class="edge">
<title>3&#45;&gt;8</title>
<path fill="none" stroke="black" d="M71.71,-429.71C78.08,-433.59 84.85,-437.85 90.99,-442 140.7,-475.6 143.61,-499.93 198.99,-523 468.56,-635.29 830.27,-640.38 945.06,-638.88"/>
<polygon fill="black" stroke="black" points="945.45,-642.38 955.39,-638.72 945.34,-635.38 945.45,-642.38"/>
</g>
<!-- 3&#45;&gt;10 -->
<g id="edge8" class="edge">
<title>3&#45;&gt;10</title>
<path fill="none" stroke="black" d="M87.86,-420.73C122.87,-425.57 172.54,-432.45 205.84,-437.06"/>
<polygon fill="black" stroke="black" points="205.65,-440.56 216.03,-438.47 206.61,-433.63 205.65,-440.56"/>
</g>
<!-- 21 -->
<g id="node22" class="node">
<title>21</title>
<ellipse fill="greenyellow" stroke="greenyellow" cx="982.61" cy="-248" rx="27" ry="18"/>
<text text-anchor="middle" x="982.61" y="-244.3" font-family="Times,serif" font-size="14.00">tanh</text>
</g>
<!-- 3&#45;&gt;21 -->
<g id="edge9" class="edge">
<title>3&#45;&gt;21</title>
<path fill="none" stroke="black" d="M65.09,-398.76C118.35,-353.97 277.65,-232 432.73,-232 432.73,-232 432.73,-232 618.77,-232 738.53,-232 880.3,-240.81 945.51,-245.35"/>
<polygon fill="black" stroke="black" points="945.45,-248.86 955.67,-246.07 945.94,-241.87 945.45,-248.86"/>
</g>
<!-- 4 -->
<g id="node5" class="node">
<title>4</title>
<ellipse fill="none" stroke="lightslategrey" cx="242.54" cy="-64" rx="43.59" ry="18"/>
<text text-anchor="middle" x="242.54" y="-60.3" font-family="Times,serif" font-size="14.00">theta_dot</text>
</g>
<!-- 9 -->
<g id="node10" class="node">
<title>9</title>
<ellipse fill="lightslategrey" stroke="lightslategrey" cx="1166.65" cy="-18" rx="33.6" ry="18"/>
<text text-anchor="middle" x="1166.65" y="-14.3" font-family="Times,serif" font-size="14.00">Linear</text>
</g>
<!-- 4&#45;&gt;9 -->
<g id="edge10" class="edge">
<title>4&#45;&gt;9</title>
<path fill="none" stroke="black" d="M282.6,-56.68C350.36,-44.65 494.19,-22 616.77,-22 616.77,-22 616.77,-22 799.57,-22 916.31,-22 1053.98,-19.94 1122.46,-18.78"/>
<polygon fill="black" stroke="black" points="1122.9,-22.27 1132.84,-18.6 1122.78,-15.27 1122.9,-22.27"/>
</g>
<!-- 4&#45;&gt;12 -->
<g id="edge11" class="edge">
<title>4&#45;&gt;12</title>
<path fill="none" stroke="black" d="M251.79,-81.66C281.6,-145.48 383.88,-364.43 419.99,-441.72"/>
<polygon fill="black" stroke="black" points="417.03,-443.67 424.44,-451.24 423.37,-440.7 417.03,-443.67"/>
</g>
<!-- 26 -->
<g id="node27" class="node">
<title>26</title>
<ellipse fill="lightslategrey" stroke="lightslategrey" cx="1347.45" cy="-194" rx="33.6" ry="18"/>
<text text-anchor="middle" x="1347.45" y="-190.3" font-family="Times,serif" font-size="14.00">Linear</text>
</g>
<!-- 4&#45;&gt;26 -->
<g id="edge12" class="edge">
<title>4&#45;&gt;26</title>
<path fill="none" stroke="black" d="M286.36,-64C355.75,-64 497.06,-64 616.77,-64 616.77,-64 616.77,-64 983.61,-64 1081.5,-64 1111.87,-47.37 1203.05,-83 1252.16,-102.19 1298.38,-143.78 1324.48,-170.24"/>
<polygon fill="black" stroke="black" points="1322.13,-172.85 1331.6,-177.6 1327.16,-167.98 1322.13,-172.85"/>
</g>
<!-- 5 -->
<g id="node6" class="node">
<title>5</title>
<ellipse fill="none" stroke="lightslategrey" cx="242.54" cy="-496" rx="27" ry="18"/>
<text text-anchor="middle" x="242.54" y="-492.3" font-family="Times,serif" font-size="14.00">bias</text>
</g>
<!-- 5&#45;&gt;12 -->
<g id="edge13" class="edge">
<title>5&#45;&gt;12</title>
<path fill="none" stroke="black" d="M269.05,-492.36C298.83,-488.11 348.69,-480.99 385.57,-475.73"/>
<polygon fill="black" stroke="black" points="386.2,-479.18 395.6,-474.3 385.21,-472.25 386.2,-479.18"/>
</g>
<!-- 28 -->
<g id="node29" class="node">
<title>28</title>
<ellipse fill="none" stroke="black" cx="1520.44" cy="-573" rx="28.7" ry="18"/>
<text text-anchor="middle" x="1520.44" y="-569.3" font-family="Times,serif" font-size="14.00">force</text>
</g>
<!-- 6&#45;&gt;28 -->
<g id="edge14" class="edge">
<title>6&#45;&gt;28</title>
<path fill="none" stroke="black" d="M470.27,-776C535.24,-776 677.57,-776 797.57,-776 797.57,-776 797.57,-776 1167.65,-776 1264.11,-776 1299.74,-804.23 1383.84,-757 1447.59,-721.2 1489.81,-641.64 1508.47,-599.84"/>
<polygon fill="black" stroke="black" points="1511.73,-601.12 1512.51,-590.55 1505.31,-598.33 1511.73,-601.12"/>
</g>
<!-- 7&#45;&gt;28 -->
<g id="edge15" class="edge">
<title>7&#45;&gt;28</title>
<path fill="none" stroke="black" d="M1365.76,-714.41C1371.52,-709.2 1377.97,-703.36 1383.84,-698 1423.44,-661.85 1469.26,-619.5 1496.22,-594.54"/>
<polygon fill="black" stroke="black" points="1498.67,-597.04 1503.62,-587.68 1493.91,-591.9 1498.67,-597.04"/>
</g>
<!-- 25 -->
<g id="node26" class="node">
<title>25</title>
<ellipse fill="turquoise" stroke="turquoise" cx="1166.65" cy="-573" rx="36.29" ry="18"/>
<text text-anchor="middle" x="1166.65" y="-569.3" font-family="Times,serif" font-size="14.00">Inverse</text>
</g>
<!-- 8&#45;&gt;25 -->
<g id="edge16" class="edge">
<title>8&#45;&gt;25</title>
<path fill="none" stroke="black" d="M1006.67,-629.77C1036.93,-618.96 1090.47,-599.85 1126.98,-586.81"/>
<polygon fill="black" stroke="black" points="1128.55,-589.96 1136.79,-583.31 1126.2,-583.37 1128.55,-589.96"/>
</g>
<!-- 9&#45;&gt;28 -->
<g id="edge17" class="edge">
<title>9&#45;&gt;28</title>
<path fill="none" stroke="black" d="M1193.69,-29.13C1238.9,-49.75 1332.06,-98.15 1383.84,-167 1475,-288.21 1506.99,-474.18 1516.22,-544.63"/>
<polygon fill="black" stroke="black" points="1512.79,-545.43 1517.51,-554.92 1519.74,-544.56 1512.79,-545.43"/>
</g>
<!-- 10&#45;&gt;12 -->
<g id="edge18" class="edge">
<title>10&#45;&gt;12</title>
<path fill="none" stroke="black" d="M269.05,-445.64C298.83,-449.89 348.69,-457.01 385.57,-462.27"/>
<polygon fill="black" stroke="black" points="385.21,-465.75 395.6,-463.7 386.2,-458.82 385.21,-465.75"/>
</g>
<!-- 11&#45;&gt;12 -->
<g id="edge19" class="edge">
<title>11&#45;&gt;12</title>
<path fill="none" stroke="black" d="M257.14,-665.75C289.61,-629.38 371.82,-537.26 411.14,-493.2"/>
<polygon fill="black" stroke="black" points="413.91,-495.35 417.96,-485.56 408.69,-490.69 413.91,-495.35"/>
</g>
<!-- 13 -->
<g id="node14" class="node">
<title>13</title>
<ellipse fill="lightslategrey" stroke="lightslategrey" cx="617.77" cy="-331" rx="33.6" ry="18"/>
<text text-anchor="middle" x="617.77" y="-327.3" font-family="Times,serif" font-size="14.00">Linear</text>
</g>
<!-- 12&#45;&gt;13 -->
<g id="edge20" class="edge">
<title>12&#45;&gt;13</title>
<path fill="none" stroke="black" d="M454.91,-453.7C487.65,-428.89 552.38,-379.81 589.3,-351.83"/>
<polygon fill="black" stroke="black" points="591.75,-354.36 597.61,-345.53 587.52,-348.78 591.75,-354.36"/>
</g>
<!-- 14 -->
<g id="node15" class="node">
<title>14</title>
<ellipse fill="turquoise" stroke="turquoise" cx="617.77" cy="-492" rx="36.29" ry="18"/>
<text text-anchor="middle" x="617.77" y="-488.3" font-family="Times,serif" font-size="14.00">Inverse</text>
</g>
<!-- 12&#45;&gt;14 -->
<g id="edge21" class="edge">
<title>12&#45;&gt;14</title>
<path fill="none" stroke="black" d="M472.01,-473.71C501.07,-477.38 541.53,-482.49 572.29,-486.38"/>
<polygon fill="black" stroke="black" points="571.96,-489.87 582.32,-487.65 572.83,-482.92 571.96,-489.87"/>
</g>
<!-- 15 -->
<g id="node16" class="node">
<title>15</title>
<ellipse fill="orange" stroke="orange" cx="1166.65" cy="-110" rx="27" ry="18"/>
<text text-anchor="middle" x="1166.65" y="-106.3" font-family="Times,serif" font-size="14.00">Sin</text>
</g>
<!-- 12&#45;&gt;15 -->
<g id="edge22" class="edge">
<title>12&#45;&gt;15</title>
<path fill="none" stroke="black" d="M443.57,-451.52C463.8,-412.74 516.78,-318.04 581.38,-256 649.89,-190.2 672.03,-171.96 762.17,-142 891.88,-98.89 1057.42,-102.82 1129.46,-107.19"/>
<polygon fill="black" stroke="black" points="1129.59,-110.71 1139.79,-107.86 1130.04,-103.72 1129.59,-110.71"/>
</g>
<!-- 16 -->
<g id="node17" class="node">
<title>16</title>
<ellipse fill="dodgerblue" stroke="dodgerblue" cx="617.77" cy="-400" rx="27.1" ry="18"/>
<text text-anchor="middle" x="617.77" y="-396.3" font-family="Times,serif" font-size="14.00">Relu</text>
</g>
<!-- 12&#45;&gt;16 -->
<g id="edge23" class="edge">
<title>12&#45;&gt;16</title>
<path fill="none" stroke="black" d="M464.79,-457.61C497.7,-445.13 550.27,-425.21 584.16,-412.36"/>
<polygon fill="black" stroke="black" points="585.5,-415.6 593.61,-408.78 583.02,-409.05 585.5,-415.6"/>
</g>
<!-- 19 -->
<g id="node20" class="node">
<title>19</title>
<ellipse fill="turquoise" stroke="turquoise" cx="798.57" cy="-534" rx="36.29" ry="18"/>
<text text-anchor="middle" x="798.57" y="-530.3" font-family="Times,serif" font-size="14.00">Inverse</text>
</g>
<!-- 12&#45;&gt;19 -->
<g id="edge24" class="edge">
<title>12&#45;&gt;19</title>
<path fill="none" stroke="black" d="M463.06,-481.12C492.16,-492.98 539.06,-510.47 581.38,-519 639.42,-530.7 707.81,-533.68 751.88,-534.25"/>
<polygon fill="black" stroke="black" points="751.96,-537.75 761.99,-534.34 752.03,-530.75 751.96,-537.75"/>
</g>
<!-- 20 -->
<g id="node21" class="node">
<title>20</title>
<ellipse fill="dodgerblue" stroke="dodgerblue" cx="798.57" cy="-462" rx="27.1" ry="18"/>
<text text-anchor="middle" x="798.57" y="-458.3" font-family="Times,serif" font-size="14.00">Relu</text>
</g>
<!-- 12&#45;&gt;20 -->
<g id="edge25" class="edge">
<title>12&#45;&gt;20</title>
<path fill="none" stroke="black" d="M473.32,-467.81C502.89,-466.93 544.71,-465.75 581.38,-465 644.34,-463.7 717.64,-462.82 760.67,-462.36"/>
<polygon fill="black" stroke="black" points="760.98,-465.86 770.94,-462.25 760.9,-458.86 760.98,-465.86"/>
</g>
<!-- 12&#45;&gt;25 -->
<g id="edge26" class="edge">
<title>12&#45;&gt;25</title>
<path fill="none" stroke="black" d="M458.71,-483.17C487.02,-499.2 535.99,-524.79 581.38,-538 775.51,-594.49 1020.8,-584.31 1120.47,-576.97"/>
<polygon fill="black" stroke="black" points="1120.79,-580.46 1130.5,-576.21 1120.26,-573.48 1120.79,-580.46"/>
</g>
<!-- 12&#45;&gt;26 -->
<g id="edge27" class="edge">
<title>12&#45;&gt;26</title>
<path fill="none" stroke="black" d="M445.65,-451.65C467.45,-418.33 519.64,-345.09 581.38,-304 816.37,-147.58 1181.79,-173.96 1304.59,-188.33"/>
<polygon fill="black" stroke="black" points="1304.35,-191.83 1314.7,-189.55 1305.19,-184.88 1304.35,-191.83"/>
</g>
<!-- 12&#45;&gt;28 -->
<g id="edge28" class="edge">
<title>12&#45;&gt;28</title>
<path fill="none" stroke="black" d="M455.93,-484.12C526.72,-533.06 762.78,-684 981.61,-684 981.61,-684 981.61,-684 1167.65,-684 1291.97,-684 1430.02,-620.18 1489.5,-589.32"/>
<polygon fill="black" stroke="black" points="1491.14,-592.42 1498.36,-584.67 1487.88,-586.22 1491.14,-592.42"/>
</g>
<!-- 17 -->
<g id="node18" class="node">
<title>17</title>
<ellipse fill="lightslategrey" stroke="lightslategrey" cx="798.57" cy="-370" rx="33.6" ry="18"/>
<text text-anchor="middle" x="798.57" y="-366.3" font-family="Times,serif" font-size="14.00">Linear</text>
</g>
<!-- 13&#45;&gt;17 -->
<g id="edge29" class="edge">
<title>13&#45;&gt;17</title>
<path fill="none" stroke="black" d="M649.51,-337.7C679.15,-344.17 724.19,-354 756.82,-361.11"/>
<polygon fill="black" stroke="black" points="756.42,-364.61 766.93,-363.32 757.91,-357.77 756.42,-364.61"/>
</g>
<!-- 18 -->
<g id="node19" class="node">
<title>18</title>
<ellipse fill="orange" stroke="orange" cx="798.57" cy="-316" rx="27" ry="18"/>
<text text-anchor="middle" x="798.57" y="-312.3" font-family="Times,serif" font-size="14.00">Sin</text>
</g>
<!-- 13&#45;&gt;18 -->
<g id="edge30" class="edge">
<title>13&#45;&gt;18</title>
<path fill="none" stroke="black" d="M651.57,-328.25C682.63,-325.64 729.19,-321.74 761.34,-319.04"/>
<polygon fill="black" stroke="black" points="761.98,-322.5 771.65,-318.17 761.39,-315.52 761.98,-322.5"/>
</g>
<!-- 13&#45;&gt;21 -->
<g id="edge31" class="edge">
<title>13&#45;&gt;21</title>
<path fill="none" stroke="black" d="M647.12,-321.78C675.88,-312.65 721.8,-298.66 762.17,-289 826.42,-273.63 902.39,-260.55 945.99,-253.53"/>
<polygon fill="black" stroke="black" points="946.77,-256.95 956.09,-251.91 945.67,-250.03 946.77,-256.95"/>
</g>
<!-- 24 -->
<g id="node25" class="node">
<title>24</title>
<ellipse fill="dodgerblue" stroke="dodgerblue" cx="1166.65" cy="-332" rx="27.1" ry="18"/>
<text text-anchor="middle" x="1166.65" y="-328.3" font-family="Times,serif" font-size="14.00">Relu</text>
</g>
<!-- 13&#45;&gt;24 -->
<g id="edge32" class="edge">
<title>13&#45;&gt;24</title>
<path fill="none" stroke="black" d="M640.56,-344.68C667.79,-360.89 716.39,-386.97 762.17,-397 793.77,-403.92 803.27,-403.47 834.96,-397 886.08,-386.57 892.34,-363.6 942.96,-351 1007.1,-335.04 1084.49,-331.91 1129.09,-331.6"/>
<polygon fill="black" stroke="black" points="1129.17,-335.1 1139.16,-331.57 1129.15,-328.1 1129.17,-335.1"/>
</g>
<!-- 13&#45;&gt;26 -->
<g id="edge33" class="edge">
<title>13&#45;&gt;26</title>
<path fill="none" stroke="black" d="M643.49,-319.25C671.75,-306.11 719.61,-284.74 762.17,-270 840.84,-242.75 860.85,-234.74 942.96,-221 1072.82,-199.28 1228.94,-194.89 1303.16,-194.1"/>
<polygon fill="black" stroke="black" points="1303.54,-197.6 1313.51,-194.01 1303.47,-190.6 1303.54,-197.6"/>
</g>
<!-- 14&#45;&gt;19 -->
<g id="edge34" class="edge">
<title>14&#45;&gt;19</title>
<path fill="none" stroke="black" d="M651.15,-499.61C680.39,-506.47 723.6,-516.62 755.5,-524.12"/>
<polygon fill="black" stroke="black" points="754.89,-527.57 765.43,-526.45 756.5,-520.76 754.89,-527.57"/>
</g>
<!-- 15&#45;&gt;26 -->
<g id="edge35" class="edge">
<title>15&#45;&gt;26</title>
<path fill="none" stroke="black" d="M1189.22,-120.13C1219.83,-134.51 1276.17,-160.98 1312.44,-178.02"/>
<polygon fill="black" stroke="black" points="1311.11,-181.27 1321.65,-182.35 1314.09,-174.93 1311.11,-181.27"/>
</g>
<!-- 16&#45;&gt;20 -->
<g id="edge36" class="edge">
<title>16&#45;&gt;20</title>
<path fill="none" stroke="black" d="M642.15,-408.11C673.34,-418.92 728.74,-438.13 764.29,-450.46"/>
<polygon fill="black" stroke="black" points="763.59,-453.92 774.19,-453.89 765.89,-447.31 763.59,-453.92"/>
</g>
<!-- 17&#45;&gt;24 -->
<g id="edge37" class="edge">
<title>17&#45;&gt;24</title>
<path fill="none" stroke="black" d="M824.22,-358.06C852.23,-345.21 899.67,-325.61 942.96,-318 1008.49,-306.49 1086.31,-316.72 1130.45,-324.71"/>
<polygon fill="black" stroke="black" points="1129.92,-328.17 1140.39,-326.57 1131.21,-321.29 1129.92,-328.17"/>
</g>
<!-- 18&#45;&gt;21 -->
<g id="edge38" class="edge">
<title>18&#45;&gt;21</title>
<path fill="none" stroke="black" d="M822.62,-307.39C854.63,-295.43 912.69,-273.74 949.09,-260.15"/>
<polygon fill="black" stroke="black" points="950.6,-263.32 958.74,-256.54 948.15,-256.76 950.6,-263.32"/>
</g>
<!-- 23 -->
<g id="node24" class="node">
<title>23</title>
<ellipse fill="orange" stroke="orange" cx="982.61" cy="-508" rx="27" ry="18"/>
<text text-anchor="middle" x="982.61" y="-504.3" font-family="Times,serif" font-size="14.00">Sin</text>
</g>
<!-- 19&#45;&gt;23 -->
<g id="edge39" class="edge">
<title>19&#45;&gt;23</title>
<path fill="none" stroke="black" d="M833.81,-529.11C865.87,-524.53 913.59,-517.72 946.07,-513.08"/>
<polygon fill="black" stroke="black" points="946.63,-516.53 956.04,-511.65 945.64,-509.6 946.63,-516.53"/>
</g>
<!-- 19&#45;&gt;25 -->
<g id="edge40" class="edge">
<title>19&#45;&gt;25</title>
<path fill="none" stroke="black" d="M834.34,-537.7C900.94,-544.8 1046.44,-560.3 1120.46,-568.19"/>
<polygon fill="black" stroke="black" points="1120.53,-571.71 1130.85,-569.29 1121.28,-564.75 1120.53,-571.71"/>
</g>
<!-- 22 -->
<g id="node23" class="node">
<title>22</title>
<ellipse fill="gold" stroke="gold" cx="982.61" cy="-378" rx="39.79" ry="18"/>
<text text-anchor="middle" x="982.61" y="-374.3" font-family="Times,serif" font-size="14.00">Gausian</text>
</g>
<!-- 20&#45;&gt;22 -->
<g id="edge41" class="edge">
<title>20&#45;&gt;22</title>
<path fill="none" stroke="black" d="M821.53,-451.87C852.08,-437.77 907.83,-412.04 944.8,-394.98"/>
<polygon fill="black" stroke="black" points="946.62,-398 954.23,-390.63 943.69,-391.64 946.62,-398"/>
</g>
<!-- 20&#45;&gt;23 -->
<g id="edge42" class="edge">
<title>20&#45;&gt;23</title>
<path fill="none" stroke="black" d="M824.5,-468.3C856.23,-476.32 911.2,-490.21 946.99,-499.25"/>
<polygon fill="black" stroke="black" points="946.43,-502.72 956.98,-501.78 948.14,-495.93 946.43,-502.72"/>
</g>
<!-- 20&#45;&gt;24 -->
<g id="edge43" class="edge">
<title>20&#45;&gt;24</title>
<path fill="none" stroke="black" d="M825.17,-457.36C867.18,-449.32 952.99,-431.13 1022.26,-405 1063.59,-389.41 1108.57,-365.23 1136.92,-349.02"/>
<polygon fill="black" stroke="black" points="1138.96,-351.88 1145.87,-343.85 1135.46,-345.82 1138.96,-351.88"/>
</g>
<!-- 20&#45;&gt;26 -->
<g id="edge44" class="edge">
<title>20&#45;&gt;26</title>
<path fill="none" stroke="black" d="M826.08,-461.6C894.8,-459.33 1081.74,-445.08 1203.05,-359 1258.26,-319.82 1306.15,-255.13 1330.12,-219.5"/>
<polygon fill="black" stroke="black" points="1333.08,-221.37 1335.69,-211.1 1327.25,-217.5 1333.08,-221.37"/>
</g>
<!-- 21&#45;&gt;24 -->
<g id="edge45" class="edge">
<title>21&#45;&gt;24</title>
<path fill="none" stroke="black" d="M1005.21,-257.97C1037.28,-272.77 1097.68,-300.63 1134.52,-317.64"/>
<polygon fill="black" stroke="black" points="1133.25,-320.9 1143.8,-321.92 1136.19,-314.55 1133.25,-320.9"/>
</g>
<!-- 22&#45;&gt;24 -->
<g id="edge46" class="edge">
<title>22&#45;&gt;24</title>
<path fill="none" stroke="black" d="M1017.85,-369.35C1050.19,-361.18 1098.46,-348.98 1130.95,-340.77"/>
<polygon fill="black" stroke="black" points="1132.07,-344.1 1140.91,-338.25 1130.35,-337.31 1132.07,-344.1"/>
</g>
<!-- 23&#45;&gt;25 -->
<g id="edge47" class="edge">
<title>23&#45;&gt;25</title>
<path fill="none" stroke="black" d="M1006.67,-516.23C1036.93,-527.04 1090.47,-546.15 1126.98,-559.19"/>
<polygon fill="black" stroke="black" points="1126.2,-562.63 1136.79,-562.69 1128.55,-556.04 1126.2,-562.63"/>
</g>
<!-- 24&#45;&gt;26 -->
<g id="edge48" class="edge">
<title>24&#45;&gt;26</title>
<path fill="none" stroke="black" d="M1185.12,-318.52C1216.36,-294.41 1281.99,-243.75 1319.2,-215.03"/>
<polygon fill="black" stroke="black" points="1321.79,-217.45 1327.57,-208.57 1317.51,-211.91 1321.79,-217.45"/>
</g>
<!-- 27 -->
<g id="node28" class="node">
<title>27</title>
<ellipse fill="turquoise" stroke="turquoise" cx="1347.45" cy="-429" rx="36.29" ry="18"/>
<text text-anchor="middle" x="1347.45" y="-425.3" font-family="Times,serif" font-size="14.00">Inverse</text>
</g>
<!-- 24&#45;&gt;27 -->
<g id="edge49" class="edge">
<title>24&#45;&gt;27</title>
<path fill="none" stroke="black" d="M1188.16,-343.13C1218.77,-359.73 1276.73,-391.17 1313.37,-411.06"/>
<polygon fill="black" stroke="black" points="1311.74,-414.15 1322.2,-415.85 1315.08,-408 1311.74,-414.15"/>
</g>
<!-- 25&#45;&gt;28 -->
<g id="edge50" class="edge">
<title>25&#45;&gt;28</title>
<path fill="none" stroke="black" d="M1203.32,-573C1269.98,-573 1412.87,-573 1481.33,-573"/>
<polygon fill="black" stroke="black" points="1481.66,-576.5 1491.66,-573 1481.66,-569.5 1481.66,-576.5"/>
</g>
<!-- 26&#45;&gt;28 -->
<g id="edge51" class="edge">
<title>26&#45;&gt;28</title>
<path fill="none" stroke="black" d="M1356.35,-211.52C1383.7,-272.14 1474.44,-473.26 1507.37,-546.25"/>
<polygon fill="black" stroke="black" points="1504.32,-547.99 1511.62,-555.67 1510.7,-545.11 1504.32,-547.99"/>
</g>
<!-- 27&#45;&gt;28 -->
<g id="edge52" class="edge">
<title>27&#45;&gt;28</title>
<path fill="none" stroke="black" d="M1366.75,-444.41C1397.61,-470.41 1460.05,-522.99 1494.76,-552.22"/>
<polygon fill="black" stroke="black" points="1492.64,-555.01 1502.54,-558.77 1497.15,-549.65 1492.64,-555.01"/>
</g>
</g>
</svg>
