<?xml version="1.0" encoding="UTF-8" standalone="no"?>
<!DOCTYPE svg PUBLIC "-//W3C//DTD SVG 1.1//EN"
 "http://www.w3.org/Graphics/SVG/1.1/DTD/svg11.dtd">
<!-- Generated by graphviz version 2.47.2 (0)
 -->
<!-- Pages: 1 -->
<svg width="1540pt" height="770pt"
 viewBox="0.00 0.00 1539.55 770.00" xmlns="http://www.w3.org/2000/svg" xmlns:xlink="http://www.w3.org/1999/xlink">
<g id="graph0" class="graph" transform="scale(1 1) rotate(0) translate(4 766)">
<polygon fill="white" stroke="transparent" points="-4,4 -4,-766 1535.55,-766 1535.55,4 -4,4"/>
<!-- 0 -->
<g id="node1" class="node">
<title>0</title>
<ellipse fill="none" stroke="lightgrey" cx="45.5" cy="-390" rx="27" ry="18"/>
<text text-anchor="middle" x="45.5" y="-386.3" font-family="Times,serif" font-size="14.00">x</text>
</g>
<!-- 10 -->
<g id="node11" class="node">
<title>10</title>
<ellipse fill="greenyellow" stroke="greenyellow" cx="235.39" cy="-390" rx="27" ry="18"/>
<text text-anchor="middle" x="235.39" y="-386.3" font-family="Times,serif" font-size="14.00">tanh</text>
</g>
<!-- 0&#45;&gt;10 -->
<g id="edge1" class="edge">
<title>0&#45;&gt;10</title>
<path fill="none" stroke="black" d="M72.62,-390C105.2,-390 161.08,-390 197.88,-390"/>
<polygon fill="black" stroke="black" points="198.18,-393.5 208.18,-390 198.18,-386.5 198.18,-393.5"/>
</g>
<!-- 1 -->
<g id="node2" class="node">
<title>1</title>
<ellipse fill="none" stroke="lightgrey" cx="45.5" cy="-661" rx="30.59" ry="18"/>
<text text-anchor="middle" x="45.5" y="-657.3" font-family="Times,serif" font-size="14.00">x_dot</text>
</g>
<!-- 6 -->
<g id="node7" class="node">
<title>6</title>
<ellipse fill="turquoise" stroke="turquoise" cx="235.39" cy="-661" rx="36.29" ry="18"/>
<text text-anchor="middle" x="235.39" y="-657.3" font-family="Times,serif" font-size="14.00">Inverse</text>
</g>
<!-- 1&#45;&gt;6 -->
<g id="edge2" class="edge">
<title>1&#45;&gt;6</title>
<path fill="none" stroke="black" d="M76.27,-661C106.46,-661 153.6,-661 188.56,-661"/>
<polygon fill="black" stroke="black" points="188.99,-664.5 198.99,-661 188.99,-657.5 188.99,-664.5"/>
</g>
<!-- 7 -->
<g id="node8" class="node">
<title>7</title>
<ellipse fill="turquoise" stroke="turquoise" cx="419.43" cy="-744" rx="36.29" ry="18"/>
<text text-anchor="middle" x="419.43" y="-740.3" font-family="Times,serif" font-size="14.00">Inverse</text>
</g>
<!-- 1&#45;&gt;7 -->
<g id="edge3" class="edge">
<title>1&#45;&gt;7</title>
<path fill="none" stroke="black" d="M74.45,-667.24C139.12,-681.67 299.38,-717.43 376.14,-734.56"/>
<polygon fill="black" stroke="black" points="375.43,-737.99 385.95,-736.75 376.96,-731.16 375.43,-737.99"/>
</g>
<!-- 12 -->
<g id="node13" class="node">
<title>12</title>
<ellipse fill="gold" stroke="gold" cx="419.43" cy="-417" rx="39.79" ry="18"/>
<text text-anchor="middle" x="419.43" y="-413.3" font-family="Times,serif" font-size="14.00">Gausian</text>
</g>
<!-- 1&#45;&gt;12 -->
<g id="edge4" class="edge">
<title>1&#45;&gt;12</title>
<path fill="none" stroke="black" d="M69.18,-649.25C110.51,-627.55 200.4,-579.01 271.79,-531 315.38,-501.68 362.88,-463.51 391.66,-439.63"/>
<polygon fill="black" stroke="black" points="394.17,-442.09 399.61,-432.99 389.69,-436.71 394.17,-442.09"/>
</g>
<!-- 2 -->
<g id="node3" class="node">
<title>2</title>
<ellipse fill="none" stroke="lightgrey" cx="45.5" cy="-559" rx="45.49" ry="18"/>
<text text-anchor="middle" x="45.5" y="-555.3" font-family="Times,serif" font-size="14.00">cos(theta)</text>
</g>
<!-- 2&#45;&gt;6 -->
<g id="edge5" class="edge">
<title>2&#45;&gt;6</title>
<path fill="none" stroke="black" d="M73.02,-573.4C106.68,-591.67 164.76,-623.2 201.29,-643.03"/>
<polygon fill="black" stroke="black" points="199.63,-646.11 210.09,-647.81 202.97,-639.96 199.63,-646.11"/>
</g>
<!-- 11 -->
<g id="node12" class="node">
<title>11</title>
<ellipse fill="greenyellow" stroke="greenyellow" cx="235.39" cy="-504" rx="27" ry="18"/>
<text text-anchor="middle" x="235.39" y="-500.3" font-family="Times,serif" font-size="14.00">tanh</text>
</g>
<!-- 2&#45;&gt;11 -->
<g id="edge6" class="edge">
<title>2&#45;&gt;11</title>
<path fill="none" stroke="black" d="M82.72,-548.4C116.84,-538.41 167.53,-523.57 200.77,-513.84"/>
<polygon fill="black" stroke="black" points="201.87,-517.17 210.48,-511 199.9,-510.45 201.87,-517.17"/>
</g>
<!-- 3 -->
<g id="node4" class="node">
<title>3</title>
<ellipse fill="none" stroke="lightgrey" cx="45.5" cy="-336" rx="44.39" ry="18"/>
<text text-anchor="middle" x="45.5" y="-332.3" font-family="Times,serif" font-size="14.00">sin(theta)</text>
</g>
<!-- 8 -->
<g id="node9" class="node">
<title>8</title>
<ellipse fill="greenyellow" stroke="greenyellow" cx="419.43" cy="-202" rx="27" ry="18"/>
<text text-anchor="middle" x="419.43" y="-198.3" font-family="Times,serif" font-size="14.00">tanh</text>
</g>
<!-- 3&#45;&gt;8 -->
<g id="edge7" class="edge">
<title>3&#45;&gt;8</title>
<path fill="none" stroke="black" d="M79.18,-324.23C149.63,-298.84 315.14,-239.21 385.67,-213.8"/>
<polygon fill="black" stroke="black" points="387.14,-216.99 395.36,-210.31 384.77,-210.41 387.14,-216.99"/>
</g>
<!-- 3&#45;&gt;10 -->
<g id="edge8" class="edge">
<title>3&#45;&gt;10</title>
<path fill="none" stroke="black" d="M82.28,-346.28C116.34,-356.07 167.22,-370.7 200.61,-380.29"/>
<polygon fill="black" stroke="black" points="199.79,-383.7 210.37,-383.1 201.72,-376.97 199.79,-383.7"/>
</g>
<!-- 21 -->
<g id="node22" class="node">
<title>21</title>
<ellipse fill="greenyellow" stroke="greenyellow" cx="968.31" cy="-500" rx="27" ry="18"/>
<text text-anchor="middle" x="968.31" y="-496.3" font-family="Times,serif" font-size="14.00">tanh</text>
</g>
<!-- 3&#45;&gt;21 -->
<g id="edge9" class="edge">
<title>3&#45;&gt;21</title>
<path fill="none" stroke="black" d="M89.73,-336.77C159.07,-337.93 299.45,-340 418.43,-340 418.43,-340 418.43,-340 604.48,-340 741.99,-340 885.81,-437.41 942.37,-480.22"/>
<polygon fill="black" stroke="black" points="940.32,-483.05 950.38,-486.36 944.57,-477.5 940.32,-483.05"/>
</g>
<!-- 4 -->
<g id="node5" class="node">
<title>4</title>
<ellipse fill="none" stroke="lightgrey" cx="45.5" cy="-64" rx="43.59" ry="18"/>
<text text-anchor="middle" x="45.5" y="-60.3" font-family="Times,serif" font-size="14.00">theta_dot</text>
</g>
<!-- 9 -->
<g id="node10" class="node">
<title>9</title>
<ellipse fill="lightslategrey" stroke="lightslategrey" cx="419.43" cy="-18" rx="33.6" ry="18"/>
<text text-anchor="middle" x="419.43" y="-14.3" font-family="Times,serif" font-size="14.00">Linear</text>
</g>
<!-- 4&#45;&gt;9 -->
<g id="edge10" class="edge">
<title>4&#45;&gt;9</title>
<path fill="none" stroke="black" d="M87.36,-58.95C158.5,-50.15 304.35,-32.11 376.34,-23.21"/>
<polygon fill="black" stroke="black" points="376.91,-26.66 386.4,-21.96 376.05,-19.72 376.91,-26.66"/>
</g>
<!-- 4&#45;&gt;12 -->
<g id="edge11" class="edge">
<title>4&#45;&gt;12</title>
<path fill="none" stroke="black" d="M63.94,-80.55C124.23,-137.78 323.99,-327.36 393.96,-393.77"/>
<polygon fill="black" stroke="black" points="391.79,-396.54 401.46,-400.89 396.61,-391.47 391.79,-396.54"/>
</g>
<!-- 26 -->
<g id="node27" class="node">
<title>26</title>
<ellipse fill="lightslategrey" stroke="lightslategrey" cx="1333.15" cy="-524" rx="33.6" ry="18"/>
<text text-anchor="middle" x="1333.15" y="-520.3" font-family="Times,serif" font-size="14.00">Linear</text>
</g>
<!-- 4&#45;&gt;26 -->
<g id="edge12" class="edge">
<title>4&#45;&gt;26</title>
<path fill="none" stroke="black" d="M89.17,-64C158.31,-64 299.13,-64 418.43,-64 418.43,-64 418.43,-64 969.31,-64 1074.23,-64 1117.24,-74.24 1188.75,-151 1297.12,-267.32 1210.8,-358.27 1296.75,-492 1299.12,-495.68 1302.02,-499.21 1305.13,-502.49"/>
<polygon fill="black" stroke="black" points="1302.97,-505.27 1312.62,-509.64 1307.81,-500.21 1302.97,-505.27"/>
</g>
<!-- 5 -->
<g id="node6" class="node">
<title>5</title>
<ellipse fill="none" stroke="lightgrey" cx="45.5" cy="-444" rx="27" ry="18"/>
<text text-anchor="middle" x="45.5" y="-440.3" font-family="Times,serif" font-size="14.00">bias</text>
</g>
<!-- 5&#45;&gt;12 -->
<g id="edge13" class="edge">
<title>5&#45;&gt;12</title>
<path fill="none" stroke="black" d="M72.35,-442.12C133.92,-437.65 290,-426.32 369.81,-420.53"/>
<polygon fill="black" stroke="black" points="370.36,-424 380.08,-419.78 369.86,-417.02 370.36,-424"/>
</g>
<!-- 28 -->
<g id="node29" class="node">
<title>28</title>
<ellipse fill="none" stroke="black" cx="1504.55" cy="-524" rx="27" ry="18"/>
<text text-anchor="middle" x="1504.55" y="-520.3" font-family="Times,serif" font-size="14.00">x</text>
</g>
<!-- 6&#45;&gt;28 -->
<g id="edge14" class="edge">
<title>6&#45;&gt;28</title>
<path fill="none" stroke="black" d="M270.09,-666.7C334.47,-677.08 479.51,-698 602.48,-698 602.48,-698 602.48,-698 1153.36,-698 1253.95,-698 1280.66,-678.09 1369.55,-631 1412.99,-607.99 1456.14,-570.14 1481.3,-546.18"/>
<polygon fill="black" stroke="black" points="1484.05,-548.38 1488.82,-538.92 1479.19,-543.35 1484.05,-548.38"/>
</g>
<!-- 7&#45;&gt;28 -->
<g id="edge15" class="edge">
<title>7&#45;&gt;28</title>
<path fill="none" stroke="black" d="M455.97,-743.35C520.94,-742.21 663.26,-740 783.27,-740 783.27,-740 783.27,-740 1153.36,-740 1250.24,-740 1286.45,-761.83 1369.55,-712 1433.03,-673.93 1474.66,-592.94 1492.92,-550.77"/>
<polygon fill="black" stroke="black" points="1496.21,-552 1496.87,-541.42 1489.76,-549.28 1496.21,-552"/>
</g>
<!-- 25 -->
<g id="node26" class="node">
<title>25</title>
<ellipse fill="turquoise" stroke="turquoise" cx="1152.36" cy="-178" rx="36.29" ry="18"/>
<text text-anchor="middle" x="1152.36" y="-174.3" font-family="Times,serif" font-size="14.00">Inverse</text>
</g>
<!-- 8&#45;&gt;25 -->
<g id="edge16" class="edge">
<title>8&#45;&gt;25</title>
<path fill="none" stroke="black" d="M437.69,-188.6C463.9,-169.19 516.1,-134.14 567.08,-121 767.28,-69.38 1017.08,-135.36 1112.16,-164.98"/>
<polygon fill="black" stroke="black" points="1111.33,-168.39 1121.92,-168.06 1113.44,-161.71 1111.33,-168.39"/>
</g>
<!-- 9&#45;&gt;28 -->
<g id="edge17" class="edge">
<title>9&#45;&gt;28</title>
<path fill="none" stroke="black" d="M453.45,-18.61C517.2,-19.73 661.69,-22 783.27,-22 783.27,-22 783.27,-22 1153.36,-22 1386.56,-22 1477.29,-390.93 1498.43,-496.24"/>
<polygon fill="black" stroke="black" points="1495.01,-496.99 1500.37,-506.13 1501.88,-495.65 1495.01,-496.99"/>
</g>
<!-- 10&#45;&gt;12 -->
<g id="edge18" class="edge">
<title>10&#45;&gt;12</title>
<path fill="none" stroke="black" d="M262.08,-393.81C290.45,-398.02 336.71,-404.88 371.57,-410.05"/>
<polygon fill="black" stroke="black" points="371.12,-413.52 381.53,-411.53 372.15,-406.6 371.12,-413.52"/>
</g>
<!-- 11&#45;&gt;12 -->
<g id="edge19" class="edge">
<title>11&#45;&gt;12</title>
<path fill="none" stroke="black" d="M257.99,-493.68C288.59,-479.05 344.98,-452.1 382.09,-434.37"/>
<polygon fill="black" stroke="black" points="384.04,-437.32 391.55,-429.85 381.02,-431 384.04,-437.32"/>
</g>
<!-- 13 -->
<g id="node14" class="node">
<title>13</title>
<ellipse fill="lightslategrey" stroke="lightslategrey" cx="603.48" cy="-447" rx="33.6" ry="18"/>
<text text-anchor="middle" x="603.48" y="-443.3" font-family="Times,serif" font-size="14.00">Linear</text>
</g>
<!-- 12&#45;&gt;13 -->
<g id="edge20" class="edge">
<title>12&#45;&gt;13</title>
<path fill="none" stroke="black" d="M456.83,-423C486.85,-427.95 529.44,-434.96 560.82,-440.14"/>
<polygon fill="black" stroke="black" points="560.56,-443.64 570.99,-441.81 561.7,-436.73 560.56,-443.64"/>
</g>
<!-- 14 -->
<g id="node15" class="node">
<title>14</title>
<ellipse fill="turquoise" stroke="turquoise" cx="603.48" cy="-148" rx="36.29" ry="18"/>
<text text-anchor="middle" x="603.48" y="-144.3" font-family="Times,serif" font-size="14.00">Inverse</text>
</g>
<!-- 12&#45;&gt;14 -->
<g id="edge21" class="edge">
<title>12&#45;&gt;14</title>
<path fill="none" stroke="black" d="M429.05,-399.53C449.64,-358.72 504.65,-254.89 567.08,-180 569.82,-176.71 572.91,-173.44 576.08,-170.32"/>
<polygon fill="black" stroke="black" points="578.6,-172.75 583.52,-163.36 573.82,-167.63 578.6,-172.75"/>
</g>
<!-- 15 -->
<g id="node16" class="node">
<title>15</title>
<ellipse fill="orange" stroke="orange" cx="1152.36" cy="-576" rx="27" ry="18"/>
<text text-anchor="middle" x="1152.36" y="-572.3" font-family="Times,serif" font-size="14.00">Sin</text>
</g>
<!-- 12&#45;&gt;15 -->
<g id="edge22" class="edge">
<title>12&#45;&gt;15</title>
<path fill="none" stroke="black" d="M449.12,-428.94C478.5,-440.98 525.61,-459.77 567.08,-474 646.4,-501.21 665.87,-510.43 747.87,-528 827.13,-544.99 848.19,-542.32 928.67,-552 994.47,-559.91 1071.37,-567.93 1115.41,-572.4"/>
<polygon fill="black" stroke="black" points="1115.31,-575.91 1125.61,-573.43 1116.02,-568.94 1115.31,-575.91"/>
</g>
<!-- 16 -->
<g id="node17" class="node">
<title>16</title>
<ellipse fill="dodgerblue" stroke="dodgerblue" cx="603.48" cy="-294" rx="27.1" ry="18"/>
<text text-anchor="middle" x="603.48" y="-290.3" font-family="Times,serif" font-size="14.00">Relu</text>
</g>
<!-- 12&#45;&gt;16 -->
<g id="edge23" class="edge">
<title>12&#45;&gt;16</title>
<path fill="none" stroke="black" d="M442.39,-402.16C475.69,-379.66 538.92,-336.94 575.15,-312.46"/>
<polygon fill="black" stroke="black" points="577.42,-315.16 583.74,-306.66 573.5,-309.36 577.42,-315.16"/>
</g>
<!-- 19 -->
<g id="node20" class="node">
<title>19</title>
<ellipse fill="turquoise" stroke="turquoise" cx="784.27" cy="-167" rx="36.29" ry="18"/>
<text text-anchor="middle" x="784.27" y="-163.3" font-family="Times,serif" font-size="14.00">Inverse</text>
</g>
<!-- 12&#45;&gt;19 -->
<g id="edge24" class="edge">
<title>12&#45;&gt;19</title>
<path fill="none" stroke="black" d="M428.13,-399.39C446.24,-360.16 495.46,-265.3 567.08,-218 618.98,-183.72 691.31,-172.39 737.71,-168.7"/>
<polygon fill="black" stroke="black" points="738.05,-172.19 747.78,-167.99 737.55,-165.2 738.05,-172.19"/>
</g>
<!-- 20 -->
<g id="node21" class="node">
<title>20</title>
<ellipse fill="dodgerblue" stroke="dodgerblue" cx="784.27" cy="-294" rx="27.1" ry="18"/>
<text text-anchor="middle" x="784.27" y="-290.3" font-family="Times,serif" font-size="14.00">Relu</text>
</g>
<!-- 12&#45;&gt;20 -->
<g id="edge25" class="edge">
<title>12&#45;&gt;20</title>
<path fill="none" stroke="black" d="M451.68,-406.41C519.67,-383.36 680.51,-328.83 750.16,-305.22"/>
<polygon fill="black" stroke="black" points="751.41,-308.5 759.76,-301.97 749.16,-301.87 751.41,-308.5"/>
</g>
<!-- 12&#45;&gt;25 -->
<g id="edge26" class="edge">
<title>12&#45;&gt;25</title>
<path fill="none" stroke="black" d="M431.8,-399.78C453.81,-367.95 505.51,-300.15 567.08,-267 660.68,-216.6 985.55,-189.48 1105.98,-180.97"/>
<polygon fill="black" stroke="black" points="1106.24,-184.46 1115.98,-180.28 1105.76,-177.48 1106.24,-184.46"/>
</g>
<!-- 12&#45;&gt;26 -->
<g id="edge27" class="edge">
<title>12&#45;&gt;26</title>
<path fill="none" stroke="black" d="M435.64,-433.43C482.41,-482.08 630.25,-622 783.27,-622 783.27,-622 783.27,-622 969.31,-622 1067.21,-622 1095.09,-631.46 1188.75,-603 1231.7,-589.95 1276.22,-562.94 1304.04,-544.16"/>
<polygon fill="black" stroke="black" points="1306.2,-546.92 1312.46,-538.38 1302.23,-541.15 1306.2,-546.92"/>
</g>
<!-- 12&#45;&gt;28 -->
<g id="edge28" class="edge">
<title>12&#45;&gt;28</title>
<path fill="none" stroke="black" d="M431.66,-434.26C453.81,-467.05 506.29,-538.74 567.08,-580 651.85,-637.53 680.82,-660 783.27,-660 783.27,-660 783.27,-660 1153.36,-660 1281.82,-660 1419.9,-579.49 1476.76,-542.36"/>
<polygon fill="black" stroke="black" points="1478.77,-545.23 1485.17,-536.79 1474.9,-539.39 1478.77,-545.23"/>
</g>
<!-- 17 -->
<g id="node18" class="node">
<title>17</title>
<ellipse fill="lightslategrey" stroke="lightslategrey" cx="968.31" cy="-408" rx="33.6" ry="18"/>
<text text-anchor="middle" x="968.31" y="-404.3" font-family="Times,serif" font-size="14.00">Linear</text>
</g>
<!-- 13&#45;&gt;17 -->
<g id="edge29" class="edge">
<title>13&#45;&gt;17</title>
<path fill="none" stroke="black" d="M630.59,-436.15C658.91,-425.02 705.7,-408.46 747.87,-402 809.08,-392.62 880.98,-397.56 925.35,-402.43"/>
<polygon fill="black" stroke="black" points="925.14,-405.93 935.48,-403.59 925.94,-398.97 925.14,-405.93"/>
</g>
<!-- 18 -->
<g id="node19" class="node">
<title>18</title>
<ellipse fill="orange" stroke="orange" cx="784.27" cy="-462" rx="27" ry="18"/>
<text text-anchor="middle" x="784.27" y="-458.3" font-family="Times,serif" font-size="14.00">Sin</text>
</g>
<!-- 13&#45;&gt;18 -->
<g id="edge30" class="edge">
<title>13&#45;&gt;18</title>
<path fill="none" stroke="black" d="M637.27,-449.75C668.34,-452.36 714.9,-456.26 747.04,-458.96"/>
<polygon fill="black" stroke="black" points="747.09,-462.48 757.35,-459.83 747.68,-455.5 747.09,-462.48"/>
</g>
<!-- 13&#45;&gt;21 -->
<g id="edge31" class="edge">
<title>13&#45;&gt;21</title>
<path fill="none" stroke="black" d="M631.78,-457.09C660.31,-467.13 706.56,-482.02 747.87,-489 811.63,-499.78 887.17,-501.11 930.93,-500.77"/>
<polygon fill="black" stroke="black" points="931.13,-504.27 941.09,-500.66 931.05,-497.27 931.13,-504.27"/>
</g>
<!-- 24 -->
<g id="node25" class="node">
<title>24</title>
<ellipse fill="dodgerblue" stroke="dodgerblue" cx="1152.36" cy="-454" rx="27.1" ry="18"/>
<text text-anchor="middle" x="1152.36" y="-450.3" font-family="Times,serif" font-size="14.00">Relu</text>
</g>
<!-- 13&#45;&gt;24 -->
<g id="edge32" class="edge">
<title>13&#45;&gt;24</title>
<path fill="none" stroke="black" d="M636.89,-443.51C665.92,-440.57 709.68,-436.6 747.87,-435 883.16,-429.35 1043.9,-443.03 1114.74,-450.1"/>
<polygon fill="black" stroke="black" points="1114.62,-453.6 1124.92,-451.13 1115.33,-446.64 1114.62,-453.6"/>
</g>
<!-- 13&#45;&gt;26 -->
<g id="edge33" class="edge">
<title>13&#45;&gt;26</title>
<path fill="none" stroke="black" d="M628.1,-459.37C655.94,-473.35 703.98,-495.64 747.87,-507 945.27,-558.08 1192.74,-539.45 1290.07,-529.07"/>
<polygon fill="black" stroke="black" points="1290.54,-532.54 1300.1,-527.97 1289.78,-525.58 1290.54,-532.54"/>
</g>
<!-- 14&#45;&gt;19 -->
<g id="edge34" class="edge">
<title>14&#45;&gt;19</title>
<path fill="none" stroke="black" d="M639.37,-151.71C667.68,-154.72 707.77,-158.98 738.45,-162.24"/>
<polygon fill="black" stroke="black" points="738.15,-165.72 748.46,-163.3 738.89,-158.76 738.15,-165.72"/>
</g>
<!-- 15&#45;&gt;26 -->
<g id="edge35" class="edge">
<title>15&#45;&gt;26</title>
<path fill="none" stroke="black" d="M1177.47,-568.99C1207.14,-560.36 1257.9,-545.59 1293.15,-535.34"/>
<polygon fill="black" stroke="black" points="1294.47,-538.6 1303.1,-532.45 1292.52,-531.88 1294.47,-538.6"/>
</g>
<!-- 16&#45;&gt;20 -->
<g id="edge36" class="edge">
<title>16&#45;&gt;20</title>
<path fill="none" stroke="black" d="M630.86,-294C661.49,-294 712.21,-294 746.65,-294"/>
<polygon fill="black" stroke="black" points="746.78,-297.5 756.78,-294 746.78,-290.5 746.78,-297.5"/>
</g>
<!-- 17&#45;&gt;24 -->
<g id="edge37" class="edge">
<title>17&#45;&gt;24</title>
<path fill="none" stroke="black" d="M999.37,-415.6C1031.59,-423.74 1082.66,-436.64 1116.58,-445.21"/>
<polygon fill="black" stroke="black" points="1115.97,-448.67 1126.52,-447.72 1117.68,-441.88 1115.97,-448.67"/>
</g>
<!-- 18&#45;&gt;21 -->
<g id="edge38" class="edge">
<title>18&#45;&gt;21</title>
<path fill="none" stroke="black" d="M810.2,-467.2C841.84,-473.81 896.6,-485.24 932.39,-492.71"/>
<polygon fill="black" stroke="black" points="931.89,-496.18 942.39,-494.8 933.32,-489.33 931.89,-496.18"/>
</g>
<!-- 23 -->
<g id="node24" class="node">
<title>23</title>
<ellipse fill="orange" stroke="orange" cx="968.31" cy="-224" rx="27" ry="18"/>
<text text-anchor="middle" x="968.31" y="-220.3" font-family="Times,serif" font-size="14.00">Sin</text>
</g>
<!-- 19&#45;&gt;23 -->
<g id="edge39" class="edge">
<title>19&#45;&gt;23</title>
<path fill="none" stroke="black" d="M815.33,-176.41C847.91,-186.61 899.78,-202.85 933.69,-213.47"/>
<polygon fill="black" stroke="black" points="933.01,-216.93 943.59,-216.57 935.1,-210.25 933.01,-216.93"/>
</g>
<!-- 19&#45;&gt;25 -->
<g id="edge40" class="edge">
<title>19&#45;&gt;25</title>
<path fill="none" stroke="black" d="M820.78,-165.16C864.74,-163.2 941.92,-160.78 1007.96,-164 1041.22,-165.62 1078.68,-169.34 1106.96,-172.54"/>
<polygon fill="black" stroke="black" points="1106.61,-176.02 1116.94,-173.69 1107.41,-169.07 1106.61,-176.02"/>
</g>
<!-- 22 -->
<g id="node23" class="node">
<title>22</title>
<ellipse fill="gold" stroke="gold" cx="968.31" cy="-316" rx="39.79" ry="18"/>
<text text-anchor="middle" x="968.31" y="-312.3" font-family="Times,serif" font-size="14.00">Gausian</text>
</g>
<!-- 20&#45;&gt;22 -->
<g id="edge41" class="edge">
<title>20&#45;&gt;22</title>
<path fill="none" stroke="black" d="M811.35,-297.15C839.51,-300.55 884.96,-306.05 919.55,-310.23"/>
<polygon fill="black" stroke="black" points="919.56,-313.75 929.9,-311.48 920.39,-306.8 919.56,-313.75"/>
</g>
<!-- 20&#45;&gt;23 -->
<g id="edge42" class="edge">
<title>20&#45;&gt;23</title>
<path fill="none" stroke="black" d="M808.32,-285.13C840.33,-272.83 898.39,-250.5 934.79,-236.51"/>
<polygon fill="black" stroke="black" points="936.37,-239.65 944.44,-232.79 933.85,-233.12 936.37,-239.65"/>
</g>
<!-- 20&#45;&gt;24 -->
<g id="edge43" class="edge">
<title>20&#45;&gt;24</title>
<path fill="none" stroke="black" d="M808.66,-302.28C849.57,-316.94 936.57,-348.98 1007.96,-381 1048.03,-398.98 1092.97,-422.41 1121.68,-437.81"/>
<polygon fill="black" stroke="black" points="1120.31,-441.05 1130.77,-442.71 1123.63,-434.88 1120.31,-441.05"/>
</g>
<!-- 20&#45;&gt;26 -->
<g id="edge44" class="edge">
<title>20&#45;&gt;26</title>
<path fill="none" stroke="black" d="M810.43,-288.17C852.52,-279.57 939.35,-266.75 1007.96,-289 1075.67,-310.96 1242.53,-448.19 1306.56,-502.2"/>
<polygon fill="black" stroke="black" points="1304.65,-505.17 1314.55,-508.95 1309.17,-499.82 1304.65,-505.17"/>
</g>
<!-- 21&#45;&gt;24 -->
<g id="edge45" class="edge">
<title>21&#45;&gt;24</title>
<path fill="none" stroke="black" d="M993.86,-493.8C1025.49,-485.81 1080.64,-471.87 1116.57,-462.79"/>
<polygon fill="black" stroke="black" points="1117.77,-466.1 1126.61,-460.25 1116.06,-459.31 1117.77,-466.1"/>
</g>
<!-- 22&#45;&gt;24 -->
<g id="edge46" class="edge">
<title>22&#45;&gt;24</title>
<path fill="none" stroke="black" d="M989.49,-331.3C1022.74,-356.5 1089.01,-406.74 1125.6,-434.47"/>
<polygon fill="black" stroke="black" points="1123.71,-437.43 1133.79,-440.69 1127.94,-431.86 1123.71,-437.43"/>
</g>
<!-- 23&#45;&gt;25 -->
<g id="edge47" class="edge">
<title>23&#45;&gt;25</title>
<path fill="none" stroke="black" d="M993.86,-217.8C1023.45,-210.32 1073.65,-197.63 1109.42,-188.6"/>
<polygon fill="black" stroke="black" points="1110.72,-191.88 1119.56,-186.03 1109.01,-185.09 1110.72,-191.88"/>
</g>
<!-- 24&#45;&gt;26 -->
<g id="edge48" class="edge">
<title>24&#45;&gt;26</title>
<path fill="none" stroke="black" d="M1176.36,-463.01C1206.62,-474.86 1260.13,-495.8 1295.87,-509.8"/>
<polygon fill="black" stroke="black" points="1294.86,-513.16 1305.44,-513.54 1297.41,-506.64 1294.86,-513.16"/>
</g>
<!-- 27 -->
<g id="node28" class="node">
<title>27</title>
<ellipse fill="turquoise" stroke="turquoise" cx="1333.15" cy="-465" rx="36.29" ry="18"/>
<text text-anchor="middle" x="1333.15" y="-461.3" font-family="Times,serif" font-size="14.00">Inverse</text>
</g>
<!-- 24&#45;&gt;27 -->
<g id="edge49" class="edge">
<title>24&#45;&gt;27</title>
<path fill="none" stroke="black" d="M1179.74,-455.62C1207.82,-457.35 1252.78,-460.12 1286.61,-462.2"/>
<polygon fill="black" stroke="black" points="1286.52,-465.7 1296.71,-462.82 1286.95,-458.71 1286.52,-465.7"/>
</g>
<!-- 25&#45;&gt;28 -->
<g id="edge50" class="edge">
<title>25&#45;&gt;28</title>
<path fill="none" stroke="black" d="M1169.78,-194.22C1226.82,-250.59 1416.45,-437.94 1481.45,-502.17"/>
<polygon fill="black" stroke="black" points="1479.17,-504.84 1488.75,-509.38 1484.09,-499.86 1479.17,-504.84"/>
</g>
<!-- 26&#45;&gt;28 -->
<g id="edge51" class="edge">
<title>26&#45;&gt;28</title>
<path fill="none" stroke="black" d="M1367.21,-524C1395.94,-524 1437.48,-524 1467.15,-524"/>
<polygon fill="black" stroke="black" points="1467.5,-527.5 1477.5,-524 1467.5,-520.5 1467.5,-527.5"/>
</g>
<!-- 27&#45;&gt;28 -->
<g id="edge52" class="edge">
<title>27&#45;&gt;28</title>
<path fill="none" stroke="black" d="M1363.27,-475.14C1393.14,-485.55 1439.54,-501.71 1470.7,-512.56"/>
<polygon fill="black" stroke="black" points="1469.65,-515.9 1480.25,-515.88 1471.95,-509.29 1469.65,-515.9"/>
</g>
</g>
</svg>
